# xmcd
#
# Track frame offsets: 
#        150
#        46431
#        53777
#        72490
#        98455
#        130510
#        145218
#        170075
#        186735
#        206255
#        225697
#
# Disc length: 3189 seconds
#
# Revision: 19
# Processed by: cddbd v1.5.2PL0 Copyright (c) Steve Scherf et al.
# Submitted via: ExactAudioCopy v1.3
#
DISCID=9e0c730b
DTITLE=Eagles - Long Road Out Of Eden CD2 Deluxe Collectors Edition Pa
DTITLE=ckage
DYEAR=2007
DGENRE=Rock
TTITLE0=Long Road Out Of Eden
TTITLE1=I Dreamed There Was No War
TTITLE2=Somebody
TTITLE3=Frail Grasp On The Big Picture
TTITLE4=Last Good Time In Town
TTITLE5=I Love To Watch A Woman Dance
TTITLE6=Business As Usual
TTITLE7=Center Of The Universe
TTITLE8=It's Your World Now
TTITLE9=Hole In The World
TTITLE10=Please Come Home For Christmas
EXTD=
EXTT0=
EXTT1=
EXTT2=
EXTT3=
EXTT4=
EXTT5=
EXTT6=
EXTT7=
EXTT8=
EXTT9=
EXTT10=
PLAYORDER=
